{
  "source": "C:\\Users\\Peter\\Desktop\\stuff\\MIUN\\quantitative_research\\video_compression\\videos\\BVI-HD\\BVI-HD_CDVL_videos\\ORIG\\Boxing_1920x1080_30fps.mp4",
  "output": "C:\\Users\\Peter\\Desktop\\stuff\\MIUN\\quantitative_research\\video_compression\\compressed_videos\\BVI-HD\\vp9\\4\\Boxing_1920x1080_30fps_vp9.webm",
  "codec": "vp9",
  "ok": "Input #0, mov,mp4,m4a,3gp,3g2,mj2, from 'C:\\Users\\Peter\\Desktop\\stuff\\MIUN\\quantitative_research\\video_compression\\videos\\BVI-HD\\BVI-HD_CDVL_videos\\ORIG\\Boxing_1920x1080_30fps.mp4':\n  Metadata:\n    major_brand     : isom\n    minor_version   : 512\n    compatible_brands: isomiso2avc1mp41\n    encoder         : Lavf54.28.101\n  Duration: 00:00:05.00, start: 0.000000, bitrate: 238363 kb/s\n  Stream #0:0[0x1](und): Video: h264 (High 4:4:4 Predictive) (avc1 / 0x31637661), yuv420p(progressive), 1920x1080, 238359 kb/s, 30 fps, 30 tbr, 30 tbn (default)\n    Metadata:\n      handler_name    : VideoHandler\n      vendor_id       : [0][0][0][0]\n[out#0/webm @ 00000245f9e712c0] Codec AVOption b:a (set bitrate (in bits/s)) has not been used for any stream. The most likely reason is either wrong type (e.g. a video option with no video streams) or that it is a private option of some decoder which was not actually used for any stream.\nStream mapping:\n  Stream #0:0 -> #0:0 (h264 (native) -> vp9 (libvpx-vp9))\nPress [q] to stop, [?] for help\n[libvpx-vp9 @ 00000245fa71b040] v1.15.2-100-g40561f514\nOutput #0, webm, to 'C:\\Users\\Peter\\Desktop\\stuff\\MIUN\\quantitative_research\\video_compression\\compressed_videos\\BVI-HD\\vp9\\4\\Boxing_1920x1080_30fps_vp9.webm':\n  Metadata:\n    major_brand     : isom\n    minor_version   : 512\n    compatible_brands: isomiso2avc1mp41\n    encoder         : Lavf62.3.100\n  Stream #0:0(und): Video: vp9, yuv420p(tv, progressive), 1920x1080, q=2-31, 4000 kb/s, 30 fps, 1k tbn (default)\n    Metadata:\n      encoder         : Lavc62.11.100 libvpx-vp9\n      handler_name    : VideoHandler\n      vendor_id       : [0][0][0][0]\n    Side data:\n      cpb: bitrate max/min/avg: 0/0/0 buffer size: 4000000 vbv_delay: N/A\nframe=    0 fps=0.0 q=0.0 size=       0KiB time=N/A bitrate=N/A speed=N/A elapsed=0:00:00.52    \nframe=    5 fps=4.5 q=47.0 size=       1KiB time=00:00:00.16 bitrate=  30.4kbits/s speed=0.149x elapsed=0:00:01.11    \nframe=   10 fps=6.1 q=39.0 size=       1KiB time=00:00:00.33 bitrate=  15.2kbits/s speed=0.203x elapsed=0:00:01.63    \nframe=   15 fps=6.9 q=35.0 size=       1KiB time=00:00:00.50 bitrate=  10.1kbits/s speed=0.23x elapsed=0:00:02.17    \nframe=   20 fps=7.4 q=36.0 size=       1KiB time=00:00:00.66 bitrate=   7.6kbits/s speed=0.247x elapsed=0:00:02.70    \nframe=   24 fps=7.4 q=37.0 size=       1KiB time=00:00:00.76 bitrate=   6.6kbits/s speed=0.237x elapsed=0:00:03.23    \nframe=   29 fps=7.7 q=39.0 size=       1KiB time=00:00:00.96 bitrate=   5.2kbits/s speed=0.255x elapsed=0:00:03.79    \nframe=   32 fps=7.4 q=38.0 size=       1KiB time=00:00:01.06 bitrate=   4.8kbits/s speed=0.247x elapsed=0:00:04.31    \nframe=   38 fps=7.8 q=35.0 size=       1KiB time=00:00:01.26 bitrate=   4.0kbits/s speed=0.261x elapsed=0:00:04.85    \nframe=   41 fps=7.6 q=16.0 size=       1KiB time=00:00:01.36 bitrate=   3.7kbits/s speed=0.253x elapsed=0:00:05.40    \nframe=   46 fps=7.8 q=38.0 size=       1KiB time=00:00:01.53 bitrate=   3.3kbits/s speed=0.258x elapsed=0:00:05.93    \nframe=   50 fps=7.7 q=39.0 size=       1KiB time=00:00:01.66 bitrate=   3.0kbits/s speed=0.258x elapsed=0:00:06.45    \nframe=   55 fps=7.9 q=37.0 size=       1KiB time=00:00:01.83 bitrate=   2.8kbits/s speed=0.263x elapsed=0:00:06.97    \nframe=   60 fps=8.0 q=39.0 size=       1KiB time=00:00:02.00 bitrate=   2.5kbits/s speed=0.267x elapsed=0:00:07.50    \nframe=   65 fps=8.1 q=37.0 size=       1KiB time=00:00:02.16 bitrate=   2.3kbits/s speed=0.269x elapsed=0:00:08.04    \nframe=   69 fps=8.0 q=37.0 size=       1KiB time=00:00:02.30 bitrate=   2.2kbits/s speed=0.268x elapsed=0:00:08.58    \nframe=   73 fps=8.0 q=37.0 size=       1KiB time=00:00:02.43 bitrate=   2.1kbits/s speed=0.267x elapsed=0:00:09.10    \nframe=   78 fps=8.1 q=37.0 size=       1KiB time=00:00:02.60 bitrate=   2.0kbits/s speed=0.27x elapsed=0:00:09.61    \nframe=   82 fps=8.1 q=38.0 size=       1KiB time=00:00:02.73 bitrate=   1.9kbits/s speed=0.27x elapsed=0:00:10.13    \nframe=   86 fps=8.1 q=39.0 size=       1KiB time=00:00:02.86 bitrate=   1.8kbits/s speed=0.269x elapsed=0:00:10.65    \nframe=   90 fps=8.0 q=40.0 size=       1KiB time=00:00:03.00 bitrate=   1.7kbits/s speed=0.268x elapsed=0:00:11.18    \nframe=   94 fps=8.0 q=39.0 size=       1KiB time=00:00:03.13 bitrate=   1.6kbits/s speed=0.268x elapsed=0:00:11.70    \nframe=   99 fps=8.1 q=39.0 size=       1KiB time=00:00:03.30 bitrate=   1.5kbits/s speed=0.27x elapsed=0:00:12.22    \nframe=  103 fps=8.1 q=40.0 size=       1KiB time=00:00:03.43 bitrate=   1.5kbits/s speed=0.269x elapsed=0:00:12.76    \nframe=  108 fps=8.1 q=41.0 size=       1KiB time=00:00:03.60 bitrate=   1.4kbits/s speed=0.271x elapsed=0:00:13.29    \nframe=  112 fps=8.1 q=41.0 size=       1KiB time=00:00:03.73 bitrate=   1.4kbits/s speed=0.27x elapsed=0:00:13.82    \nframe=  117 fps=8.2 q=40.0 size=       1KiB time=00:00:03.90 bitrate=   1.3kbits/s speed=0.272x elapsed=0:00:14.33    \nframe=  121 fps=8.1 q=23.0 size=       1KiB time=00:00:04.03 bitrate=   1.3kbits/s speed=0.271x elapsed=0:00:14.86    \nframe=  126 fps=8.2 q=40.0 size=       1KiB time=00:00:04.20 bitrate=   1.2kbits/s speed=0.273x elapsed=0:00:15.39    \nframe=  126 fps=7.9 q=40.0 size=       1KiB time=00:00:04.20 bitrate=   1.2kbits/s speed=0.264x elapsed=0:00:15.90    \nframe=  126 fps=7.7 q=40.0 size=       1KiB time=00:00:04.20 bitrate=   1.2kbits/s speed=0.256x elapsed=0:00:16.43    \nframe=  126 fps=7.4 q=40.0 size=       1KiB time=00:00:04.20 bitrate=   1.2kbits/s speed=0.248x elapsed=0:00:16.95    \nframe=  126 fps=7.2 q=40.0 size=       1KiB time=00:00:04.20 bitrate=   1.2kbits/s speed=0.24x elapsed=0:00:17.48    \nframe=  126 fps=7.0 q=40.0 size=       1KiB time=00:00:04.20 bitrate=   1.2kbits/s speed=0.233x elapsed=0:00:18.02    \n[out#0/webm @ 00000245f9e712c0] video:2085KiB audio:0KiB subtitle:0KiB other streams:0KiB global headers:0KiB muxing overhead: 0.082540%\nframe=  150 fps=8.2 q=38.0 Lsize=    2086KiB time=00:00:05.00 bitrate=3418.4kbits/s speed=0.273x elapsed=0:00:18.29    \n",
  "seconds": 18.525645971298218,
  "probe_out": {}
}